<svg xmlns="http://www.w3.org/2000/svg" viewBox="0 0 109 109"><defs><style>.cls-1{fill:#cbcbcb;}.cls-2{fill:#98cbcb;}.cls-3{fill:#669898;}.cls-4{fill:#fff;stroke:#fff;stroke-miterlimit:10;}</style></defs><title>Asset 2</title><g id="Layer_2" data-name="Layer 2"><g id="Layer_1-2" data-name="Layer 1"><g id="Logo_be" data-name="Logo be"><ellipse class="cls-1" cx="54.5" cy="54.61" rx="54.5" ry="25.95"/><ellipse class="cls-2" cx="54.5" cy="54.5" rx="25.95" ry="54.5"/><ellipse class="cls-3" cx="54.5" cy="54.5" rx="25.95" ry="54.5" transform="translate(-22.57 54.5) rotate(-45)"/><path class="cls-4" d="M49.53,45.29c4.72-1.6,6.37-5,6.37-7.61,0-10-12.79-10.91-17.27-10.67-.3-4-1.71-6.07-2.89-6.07a1.27,1.27,0,0,0-1.3,1.3,1.21,1.21,0,0,0,.35.94c.83.88,1.12,2.65,1.18,4.18-4.65.95-7.13,3.66-7.13,6.61,0,2.65,2,4.83,5.78,5.6-1.12,4.36-2.18,8.84-2.18,13.14,0,9,5.66,12.68,12.67,12.68,6.78,0,12.53-3.54,12.53-10.73A9.1,9.1,0,0,0,49.53,45.29ZM31.49,34c0-1.65,1.42-3.54,4.6-4.25a55,55,0,0,1-1.18,7.61C33.32,37,31.49,36,31.49,34ZM45.11,63.21c-4.77,0-10-2.66-10-10.61a51.69,51.69,0,0,1,2-12.68c4.72.06,7.25-2.53,7.25-5.6,0-.71,0-2.12-1.35-2.12a1.21,1.21,0,0,0-1.24,1.24c0,.17.12.76.12.88,0,2.42-2.77,3.24-4.3,3.24a50.7,50.7,0,0,0,1.12-8.25c5.48-.29,10.43,1.3,12.73,3.6a6.2,6.2,0,0,1,1.89,4.77c0,2.54-2.3,6.66-10.73,6.78a1.31,1.31,0,0,0-1.3,1.3,1.15,1.15,0,0,0,1.3,1.18c8.07-.59,12.12,2.58,12.12,7.65C54.7,60.43,50,63.21,45.11,63.21Z"/><path class="cls-4" d="M57,51.48a12,12,0,0,0,1,2.45,14.57,14.57,0,0,1,6-3.39c5-1.47,9.35-.34,10.28,2.83.31,1.07.9,4.77-5,6.49-4.53,1.32-8.6.42-11.29-1.86A10.34,10.34,0,0,0,57,66.56,11.51,11.51,0,0,0,59,70.29a20.78,20.78,0,0,1,9.61-5.57c5.54-1.62,11.08-.53,12.24,3.43.63,2.15-.1,5.55-6.38,7.39C69.29,77,63.49,77,59.36,74.17a7.37,7.37,0,0,0-.66,5.1,1.29,1.29,0,0,1-2.5.67,10,10,0,0,1,1.1-7.57,13.64,13.64,0,0,1-2.83-5.06,13.11,13.11,0,0,1,1.75-11.26,15.84,15.84,0,0,1-1.73-3.82,1.54,1.54,0,0,1,.91-1.85C56.46,49.9,57,51.48,57,51.48ZM69.26,67a18.19,18.19,0,0,0-8.48,5c3.3,2.24,8.3,2.56,13,1.18,3.34-1,5-2.79,4.49-4.38C77.59,66.57,73.27,65.87,69.26,67ZM64.58,52.93c-1.92.56-4.3,1.87-5.11,3.09a10.05,10.05,0,0,0,9,1.54c2.61-.76,3.66-2,3.25-3.41C71.29,52.57,68.2,51.87,64.58,52.93Z"/></g></g></g></svg>