<svg xmlns="http://www.w3.org/2000/svg" xmlns:xlink="http://www.w3.org/1999/xlink" viewBox="0 0 478.79 1155.45"><defs><style>.cls-1{fill:#cbcbcb;fill-rule:evenodd;}.cls-2{fill:#ffcb66;}.cls-3{fill:#ec7161;}.cls-4{fill:#025159;}.cls-5{fill:#086b63;}.cls-6{fill:#4d4d4d;}.cls-7{fill:#fff;}.cls-8{fill:#669898;}</style></defs><title>Asset 10</title><g id="Layer_2" data-name="Layer 2"><g id="Layer_1-2" data-name="Layer 1"><g id="Rocket_Container" data-name="Rocket Container"><g id="Rocket"><g id="Legs"><path class="cls-1" d="M331.38,734l0,110.48,0,73.64,55.25,55.22,36.87,147.29,55.23-18.43-.08-257.77Zm-184.12.06L0,844.6l.08,257.76,55.24,18.4L92.1,973.45l55.22-55.25,0-73.65Z"/></g><g id="Flames"><path class="cls-2" d="M145.37,899.31c16.68,89.18,26.4,210,55.31,239.34,21.93,22.31,51.53,22.49,73.64,0,29.36-29.88,36.6-147.69,55.17-239.37Z"/></g><g id="Flames-2" data-name="Flames"><path class="cls-3" d="M182.17,825.65c16.68,89.18,7.76,228.63,36.9,257.76,19.26,19.24,20.27,16.55,36.83,0,29.6-29.63,18.17-166.1,36.74-257.78Z"/></g><g id="Body"><path class="cls-4" d="M202.34,21.12C148.07,82.59,54.75,243.73,55.16,605.23c.06,174.19,46.76,201.13,95,321l172.46-.05c48.07-119,100.8-145.38,100.76-321C420.75,239.73,329.75,83.9,276,21.1,252-6.94,224.9-4.44,202.34,21.12Z"/></g><g id="Body-2" data-name="Body"><path class="cls-5" d="M202.34,20.12C148.07,81.59,54.75,247.73,55.16,605.23c0,142.2,29.16,185.54,68.7,262.76l226.94-2.72c32.7-61,72.46-116.95,72.6-260.16C423.75,250.73,329.75,82.9,276,20.1,252-7.94,224.9-5.44,202.34,20.12Z"/></g><g id="Glass"><circle class="cls-6" cx="238.99" cy="292.19" r="126.36"/></g><g id="Glass-2" data-name="Glass"><ellipse class="cls-7" cx="239.38" cy="295.28" rx="102.62" ry="103.44" transform="translate(-138.7 255.87) rotate(-45.02)"/></g><image width="2316" height="2568" transform="translate(135.59 166.73) rotate(1.17) scale(0.09)" xlink:href="../../../../../../../Ori%20-%20Documents/Ori%20Ben%20Ezra%20CV/profile%20picture-circular-more.png"/><path class="cls-8" d="M130.71,826.16c3.9-1.32,5.27-4.1,5.27-6.3,0-8.29-10.59-9-14.29-8.83-.25-3.31-1.42-5-2.39-5a1.05,1.05,0,0,0-1.08,1.07,1,1,0,0,0,.3.78,5.89,5.89,0,0,1,1,3.47c-3.85.78-5.9,3-5.9,5.46,0,2.2,1.66,4,4.78,4.63a44.76,44.76,0,0,0-1.81,10.88c0,7.42,4.69,10.49,10.49,10.49,5.61,0,10.37-2.93,10.37-8.88A7.53,7.53,0,0,0,130.71,826.16Zm-14.93-9.37c0-1.37,1.17-2.93,3.81-3.51a45.41,45.41,0,0,1-1,6.29C117.3,819.28,115.78,818.45,115.78,816.79ZM127.05,841c-4,0-8.29-2.2-8.29-8.79a42.55,42.55,0,0,1,1.66-10.48c3.9,0,6-2.1,6-4.64,0-.58,0-1.75-1.12-1.75a1,1,0,0,0-1,1c0,.15.1.64.1.73,0,2-2.29,2.69-3.56,2.69a40.84,40.84,0,0,0,.92-6.83c4.54-.25,8.64,1.07,10.54,3a5.14,5.14,0,0,1,1.56,4c0,2.1-1.9,5.52-8.88,5.61a1.09,1.09,0,0,0-1.07,1.08,1,1,0,0,0,1.07,1c6.69-.49,10,2.14,10,6.34C135,838.69,131.05,841,127.05,841Z"/><path class="cls-8" d="M136.92,831.29a11.16,11.16,0,0,0,.79,2,12.18,12.18,0,0,1,4.93-2.81c4.16-1.22,7.74-.28,8.51,2.34.25.89.74,3.95-4.13,5.38-3.74,1.09-7.11.34-9.34-1.55a8.62,8.62,0,0,0-.78,7.09,9.78,9.78,0,0,0,1.62,3.09,17.1,17.1,0,0,1,7.95-4.61c4.59-1.34,9.17-.44,10.13,2.83.52,1.78-.08,4.6-5.28,6.12-4.26,1.24-9.06,1.17-12.48-1.13a6.09,6.09,0,0,0-.54,4.22,1.08,1.08,0,0,1-2.08.55,8.24,8.24,0,0,1,.92-6.26,11.12,11.12,0,0,1-2.34-4.19,10.86,10.86,0,0,1,1.44-9.32,13.22,13.22,0,0,1-1.43-3.16,1.28,1.28,0,0,1,.75-1.53C136.44,830,136.92,831.29,136.92,831.29ZM147,844.16a14.84,14.84,0,0,0-7,4.18c2.72,1.85,6.87,2.11,10.75,1,2.76-.81,4.1-2.32,3.72-3.63C153.93,843.77,150.35,843.19,147,844.16Zm-3.87-11.68a8.81,8.81,0,0,0-4.23,2.56,8.31,8.31,0,0,0,7.49,1.27c2.15-.63,3-1.65,2.68-2.82S146.16,831.61,143.16,832.48Z"/></g></g></g></g></svg>