<svg xmlns="http://www.w3.org/2000/svg" viewBox="0 0 17.94 19.51"><defs><style>.cls-1{fill:#fff;}</style></defs><title>Asset 16</title><g id="Layer_2" data-name="Layer 2"><g id="Layer_1-2" data-name="Layer 1"><g id="Text_Container" data-name="Text Container"><g id="Contact"><path class="cls-1" d="M4.76,21.88a7.29,7.29,0,0,1-3-2.92,8.36,8.36,0,0,1-1-4.12A12.88,12.88,0,0,1,2,9.27,10.22,10.22,0,0,1,5.63,5.05a10.48,10.48,0,0,1,5.88-1.61,8.49,8.49,0,0,1,3.73.78,5.81,5.81,0,0,1,2.52,2.31,7.09,7.09,0,0,1,.92,3.71,9.36,9.36,0,0,1-.75,3.86,6.44,6.44,0,0,1-2,2.57,4.14,4.14,0,0,1-2.52.9A2.38,2.38,0,0,1,10.94,16a3,3,0,0,1-1,1.17,2.45,2.45,0,0,1-1.4.42,2.48,2.48,0,0,1-2-.84,3.39,3.39,0,0,1-.71-2.25,6.25,6.25,0,0,1,.7-2.88A6,6,0,0,1,8.45,9.41a4.18,4.18,0,0,1,2.47-.82.76.76,0,0,1,.57.16,1.41,1.41,0,0,1,.23.58,4.6,4.6,0,0,1,.84-.08c.62,0,.93.22.93.67a16,16,0,0,1-.28,1.9,17.53,17.53,0,0,0-.44,3,.72.72,0,0,0,.21.53.92.92,0,0,0,.68.21A1.85,1.85,0,0,0,15,14.89a5.45,5.45,0,0,0,1.11-2,8,8,0,0,0,.45-2.73,4.28,4.28,0,0,0-1.4-3.47,5.66,5.66,0,0,0-3.82-1.2A7.54,7.54,0,0,0,6.86,6.8a7.82,7.82,0,0,0-2.74,3.37,11.34,11.34,0,0,0-.91,4.57,6.21,6.21,0,0,0,1.61,4.48A6.38,6.38,0,0,0,9.65,20.9a11.31,11.31,0,0,0,2.94-.39,14.46,14.46,0,0,0,3-1.21,1,1,0,0,1,.47-.13.79.79,0,0,1,.63.29,1.07,1.07,0,0,1,.25.72,1.22,1.22,0,0,1-.15.58,1.25,1.25,0,0,1-.48.46,11,11,0,0,1-3.16,1.28A14.69,14.69,0,0,1,9.58,23,10.07,10.07,0,0,1,4.76,21.88Zm5.18-6.72a3.3,3.3,0,0,0,.55-1.31l.7-3.5a2.38,2.38,0,0,0-1.47.6,4.14,4.14,0,0,0-1.08,1.53,5.3,5.3,0,0,0-.39,2,1.39,1.39,0,0,0,.23.87.82.82,0,0,0,.66.29A1.06,1.06,0,0,0,9.94,15.16Z" transform="translate(-0.74 -3.44)"/></g></g></g></g></svg>