<svg xmlns="http://www.w3.org/2000/svg" viewBox="0 0 19 19"><defs><style>.cls-1{fill:#fff;}</style></defs><title>Asset 15</title><g id="Layer_2" data-name="Layer 2"><g id="Layer_1-2" data-name="Layer 1"><g id="Text_Container" data-name="Text Container"><g id="Contact"><path class="cls-1" d="M19,17.43v.62a1,1,0,0,1-.95.95h-1.9A16.15,16.15,0,0,1,0,2.85V1A1,1,0,0,1,1,0h3.8a1,1,0,0,1,1,1v3.8A2.58,2.58,0,0,1,5,6.36l-2,2A14.34,14.34,0,0,0,10.6,16l2-2a2.58,2.58,0,0,1,1.61-.67h3.82a1,1,0,0,1,.94.95v3.18Z"/></g></g></g></g></svg>